<svg width="16" height="16" viewBox="0 0 16 16" fill="none" xmlns="http://www.w3.org/2000/svg">
<path d="M12.8832 6.31201C12.8832 6.31201 12.5212 10.802 12.3112 12.6933C12.2112 13.5967 11.6532 14.126 10.7392 14.1427C8.99986 14.174 7.25853 14.176 5.51986 14.1393C4.64053 14.1213 4.09186 13.5853 3.99386 12.698C3.78253 10.79 3.42253 6.31201 3.42253 6.31201" stroke="#E05453" stroke-linecap="round" stroke-linejoin="round"/>
<path d="M13.8053 4.15975H2.5" stroke="#E05453" stroke-linecap="round" stroke-linejoin="round"/>
<path d="M11.6269 4.15974C11.1036 4.15974 10.6529 3.78974 10.5503 3.27707L10.3883 2.46641C10.2883 2.09241 9.9496 1.83374 9.5636 1.83374H6.7416C6.3556 1.83374 6.01694 2.09241 5.91694 2.46641L5.75494 3.27707C5.65227 3.78974 5.2016 4.15974 4.67827 4.15974" stroke="#E05453" stroke-linecap="round" stroke-linejoin="round"/>
</svg>
