<svg width="16" height="16" viewBox="0 0 16 16" fill="none" xmlns="http://www.w3.org/2000/svg">
<path fill-rule="evenodd" clip-rule="evenodd" d="M10.89 1.8335H5.11071C3.09671 1.8335 1.83405 3.2595 1.83405 5.2775V10.7228C1.83405 12.7408 3.09005 14.1668 5.11071 14.1668H10.8894C12.91 14.1668 14.1674 12.7408 14.1674 10.7228V5.2775C14.1674 3.2595 12.91 1.8335 10.89 1.8335Z" stroke="#4BAA79" stroke-linecap="round" stroke-linejoin="round"/>
<path d="M5.01421 8.79833C4.57355 8.79833 4.21555 8.44033 4.21555 8.00033C4.21555 7.56033 4.57355 7.20166 5.01421 7.20166C5.45488 7.20166 5.81288 7.56033 5.81288 8.00033C5.81288 8.44033 5.45488 8.79833 5.01421 8.79833Z" fill="#4BAA79"/>
<path d="M8.00054 8.79833C7.55987 8.79833 7.20187 8.44033 7.20187 8.00033C7.20187 7.56033 7.55987 7.20166 8.00054 7.20166C8.44121 7.20166 8.79921 7.56033 8.79921 8.00033C8.79921 8.44033 8.44121 8.79833 8.00054 8.79833Z" fill="#4BAA79"/>
<path d="M10.9862 8.79833C10.5456 8.79833 10.1876 8.44033 10.1876 8.00033C10.1876 7.56033 10.5456 7.20166 10.9862 7.20166C11.4269 7.20166 11.7849 7.56033 11.7849 8.00033C11.7849 8.44033 11.4269 8.79833 10.9862 8.79833Z" fill="#4BAA79"/>
</svg>
