<svg width="20" height="20" viewBox="0 0 20 20" fill="none" xmlns="http://www.w3.org/2000/svg">
<path d="M9.95756 12.1163C12.8169 12.1163 15.2583 12.5696 15.2583 14.3835C15.2583 16.1968 12.8326 16.6666 9.95756 16.6666C7.09825 16.6666 4.65678 16.2133 4.65678 14.4001C4.65678 12.5861 7.08258 12.1163 9.95756 12.1163ZM14.5293 11.024C15.6224 11.0037 16.7976 11.1538 17.2319 11.2604C18.1519 11.4413 18.7571 11.8105 19.0078 12.3471C19.2197 12.7877 19.2197 13.2988 19.0078 13.7386C18.6242 14.5709 17.3878 14.8381 16.9073 14.9071C16.8081 14.9221 16.7282 14.8358 16.7387 14.736C16.9842 12.4297 15.0314 11.3362 14.5263 11.0848C14.5046 11.0735 14.5002 11.0563 14.5024 11.0457C14.5039 11.0382 14.5129 11.0262 14.5293 11.024ZM5.26553 11.0224L5.47137 11.0243C5.48779 11.0265 5.496 11.0385 5.49749 11.0453C5.49973 11.0566 5.49525 11.0731 5.47436 11.0851C4.96846 11.3365 3.01573 12.43 3.26122 14.7355C3.27167 14.8361 3.19257 14.9217 3.09333 14.9074C2.6128 14.8384 1.3764 14.5712 0.992868 13.7389C0.780209 13.2983 0.780209 12.788 0.992868 12.3474C1.24358 11.8108 1.84798 11.4416 2.768 11.2599C3.20302 11.1541 4.37749 11.004 5.47137 11.0243L5.26553 11.0224ZM9.95756 3.33325C11.9043 3.33325 13.4653 4.90181 13.4653 6.86063C13.4653 8.8187 11.9043 10.3888 9.95756 10.3888C8.01081 10.3888 6.44982 8.8187 6.44982 6.86063C6.44982 4.90181 8.01081 3.33325 9.95756 3.33325ZM14.7195 3.9215C16.5999 3.9215 18.0766 5.70095 17.5736 7.68303C17.2341 9.01743 16.0052 9.90378 14.636 9.86775C14.4987 9.864 14.3636 9.85124 14.233 9.82873C14.1383 9.81222 14.0905 9.70489 14.1442 9.62534C14.6666 8.85232 14.9643 7.92244 14.9643 6.92427C14.9643 5.88257 14.639 4.91142 14.0741 4.11513C14.0562 4.09036 14.0428 4.05209 14.0607 4.02357C14.0756 4.0003 14.1032 3.98829 14.1293 3.98229C14.3196 3.94326 14.5151 3.9215 14.7195 3.9215ZM5.27998 3.92142C5.48443 3.92142 5.67993 3.94319 5.87095 3.98221C5.89632 3.98822 5.92467 4.00098 5.93959 4.02349C5.95676 4.05201 5.94407 4.09029 5.92616 4.11505C5.36131 4.91134 5.03598 5.88249 5.03598 6.9242C5.03598 7.92237 5.3337 8.85224 5.85602 9.62527C5.90975 9.70482 5.86199 9.81214 5.76723 9.82865C5.6359 9.85192 5.50159 9.86393 5.3643 9.86768C3.99508 9.9037 2.76614 9.01736 2.42663 7.68296C1.92297 5.70087 3.39964 3.92142 5.27998 3.92142Z" fill="#818DA9"/>
</svg>
