<svg width="14" height="13" viewBox="0 0 14 13" fill="none" xmlns="http://www.w3.org/2000/svg">
<path d="M1.375 9.625H2.87312C3.37558 9.62496 3.87061 9.50377 4.31626 9.2717C4.7619 9.03963 5.14502 8.70352 5.43313 8.29187L5.54375 8.13375M7.83125 4.86688L7.94187 4.70813C8.22998 4.29648 8.6131 3.96037 9.05874 3.7283C9.50439 3.49623 9.99942 3.37504 10.5019 3.375H12.625" stroke="white" stroke-width="1.5" stroke-linecap="round" stroke-linejoin="round"/>
<path d="M10.75 1.5L12.625 3.375L10.75 5.25M1.375 3.375H2.87312C3.37558 3.37504 3.87061 3.49623 4.31626 3.7283C4.7619 3.96037 5.14502 4.29648 5.43313 4.70813L7.94187 8.29187C8.22998 8.70352 8.6131 9.03963 9.05874 9.2717C9.50439 9.50377 9.99942 9.62496 10.5019 9.625H12.625" stroke="white" stroke-width="1.5" stroke-linecap="round" stroke-linejoin="round"/>
<path d="M10.75 11.5L12.625 9.625L10.75 7.75" stroke="white" stroke-width="1.5" stroke-linecap="round" stroke-linejoin="round"/>
</svg>
