<svg width="20" height="20" viewBox="0 0 20 20" fill="none" xmlns="http://www.w3.org/2000/svg">
<path d="M12.8748 3.15033C12.8415 3.35866 12.8248 3.567 12.8248 3.77533C12.8248 5.65033 14.3415 7.16617 16.2082 7.16617C16.4165 7.16617 16.6165 7.142 16.8248 7.10867V13.8328C16.8248 16.6587 15.1582 18.3337 12.3248 18.3337H6.16734C3.33317 18.3337 1.6665 16.6587 1.6665 13.8328V7.667C1.6665 4.83367 3.33317 3.15033 6.16734 3.15033H12.8748ZM13.0423 8.217C12.8165 8.192 12.5923 8.292 12.4582 8.47533L10.4423 11.0837L8.13317 9.267C7.9915 9.15867 7.82484 9.11617 7.65817 9.13367C7.49234 9.15867 7.34234 9.2495 7.2415 9.38283L4.77567 12.592L4.72484 12.667C4.58317 12.9328 4.64984 13.2745 4.89984 13.4587C5.0165 13.5337 5.1415 13.5837 5.28317 13.5837C5.47567 13.592 5.65817 13.4912 5.77484 13.3337L7.8665 10.6412L10.2415 12.4253L10.3165 12.4745C10.5832 12.6162 10.9165 12.5503 11.1082 12.2995L13.5165 9.192L13.4832 9.20867C13.6165 9.02533 13.6415 8.792 13.5498 8.58367C13.459 8.37533 13.2582 8.23367 13.0423 8.217ZM16.3249 1.66675C17.4333 1.66675 18.3333 2.56675 18.3333 3.67508C18.3333 4.78342 17.4333 5.68342 16.3249 5.68342C15.2166 5.68342 14.3166 4.78342 14.3166 3.67508C14.3166 2.56675 15.2166 1.66675 16.3249 1.66675Z" fill="#818DA9"/>
</svg>
